<?xml version="1.0" encoding="UTF-8" standalone="no"?>
<!-- Created with Inkscape (http://www.inkscape.org/) -->

<svg
   xmlns:dc="http://purl.org/dc/elements/1.1/"
   xmlns:cc="http://creativecommons.org/ns#"
   xmlns:rdf="http://www.w3.org/1999/02/22-rdf-syntax-ns#"
   xmlns:svg="http://www.w3.org/2000/svg"
   xmlns="http://www.w3.org/2000/svg"
   xmlns:sodipodi="http://sodipodi.sourceforge.net/DTD/sodipodi-0.dtd"
   xmlns:inkscape="http://www.inkscape.org/namespaces/inkscape"
   width="210mm"
   height="297mm"
   id="svg7038"
   version="1.1"
   inkscape:version="0.48.3.1 r9886"
   sodipodi:docname="feature-icon-megaphone.svg">
  <defs
     id="defs3">
    <inkscape:perspective
       sodipodi:type="inkscape:persp3d"
       inkscape:vp_x="0 : 526.18109 : 1"
       inkscape:vp_y="0 : 1000 : 0"
       inkscape:vp_z="744.09448 : 526.18109 : 1"
       inkscape:persp3d-origin="372.04724 : 350.78739 : 1"
       id="perspective7044" />
  </defs>
  <sodipodi:namedview
     inkscape:document-units="mm"
     id="base"
     pagecolor="#ffffff"
     bordercolor="#666666"
     borderopacity="1.0"
     inkscape:pageopacity="0.0"
     inkscape:pageshadow="2"
     inkscape:zoom="1.979899"
     inkscape:cx="339.20354"
     inkscape:cy="606.83057"
     inkscape:current-layer="g7753"
     showgrid="true"
     inkscape:snap-grids="false"
     inkscape:snap-to-guides="false"
     showguides="false"
     inkscape:window-width="1855"
     inkscape:window-height="1056"
     inkscape:window-x="65"
     inkscape:window-y="24"
     inkscape:window-maximized="1">
    <inkscape:grid
       type="xygrid"
       id="grid7635" />
  </sodipodi:namedview>
  <metadata
     id="metadata4">
    <rdf:RDF>
      <cc:Work
         rdf:about="">
        <dc:format>image/svg+xml</dc:format>
        <dc:type
           rdf:resource="http://purl.org/dc/dcmitype/StillImage" />
        <dc:title></dc:title>
      </cc:Work>
    </rdf:RDF>
  </metadata>
  <g
     style="display:inline"
     inkscape:label="circle copy"
     id="g7753"
     inkscape:groupmode="layer">
    <path
       inkscape:export-ydpi="16.026625"
       inkscape:export-xdpi="16.026625"
       inkscape:export-filename="/home/erika/DEV/p2pu/p2pu-website/images/icons/megaphone.png"
       transform="matrix(1.2411147,0,0,1.2411147,213.13731,185.91054)"
       d="m 335.37064,226.0574 a 222.23357,222.23357 0 1 1 -444.46713,0 222.23357,222.23357 0 1 1 444.46713,0 z"
       sodipodi:ry="222.23357"
       sodipodi:rx="222.23357"
       sodipodi:cy="226.0574"
       sodipodi:cx="113.13708"
       id="path7755"
       style="fill:#eb0000;fill-opacity:1;fill-rule:nonzero;stroke:none"
       sodipodi:type="arc" />
    <g
       id="g7952"
       transform="translate(-138.13836,-540.68415)">
      <path
         style="fill:#e2c02c"
         d="m 239.04074,883.3231 c -8.27668,-3.38512 -8.34244,-3.5148 -7.95067,-15.67869 l 0.3435,-10.66507 3.30358,-1.19701 c 6.19284,-2.24389 19.82212,-1.28504 23.09075,1.62448 0.43294,0.38538 0.34132,1.87334 -0.2036,3.30659 -0.65661,1.72701 -0.65037,4.7196 0.0185,8.87295 1.36742,8.49087 0.75521,10.22359 -4.48198,12.68537 -6.656,3.12869 -8.6737,3.27892 -14.12008,1.05138 z m 11.9925,-2.45124 c 5.21484,-2.1789 5.90148,-3.62795 4.49575,-9.48767 -0.67178,-2.80029 -0.94558,-6.81638 -0.60846,-8.92466 0.57773,-3.61293 0.43217,-3.89626 -2.53264,-4.9298 -3.88421,-1.35404 -10.20869,-1.40191 -14.84715,-0.11237 l -3.5,0.97303 -0.27673,6.77139 c -0.15221,3.72426 -0.37721,8.12139 -0.5,9.77139 -0.20209,2.71539 0.29851,3.25709 5.27673,5.70991 5.53262,2.72598 6.47457,2.74323 12.4925,0.22878 z m -46.19395,1.60179 c -6.09963,-3.71915 -8.32162,-12.22761 -4.9141,-18.81702 2.15314,-4.16372 5.60601,-6.35535 10.96426,-6.9593 15.14501,-1.70706 21.87718,19.65545 8.2344,26.12938 -4.55894,2.16336 -10.39403,2.01914 -14.28456,-0.35306 z m 16.53438,-4.55524 c 3.06251,-3.34177 3.35149,-4.15674 2.89862,-8.17454 -0.93192,-8.26799 -8.28477,-12.93337 -16.24376,-10.30667 -6.51773,2.15105 -9.4076,10.38278 -5.97522,17.02028 2.15677,4.17072 6.09325,6.09227 11.45308,5.59067 3.59733,-0.33666 5.12708,-1.13967 7.86728,-4.12974 z m -12.37555,-26.34816 c -5.60486,-3.41796 -8.14862,-7.55796 -10.33025,-16.81263 -1.5613,-6.62314 -1.77167,-8.9261 -0.86651,-9.48552 0.65746,-0.40633 4.15236,-1.26723 7.76644,-1.9131 7.75862,-1.38655 20.71703,0.24372 21.66965,2.72619 0.78882,2.05563 -1.65253,13.14783 -3.87618,17.61138 -1.59089,3.19341 -8.80712,9.74478 -10.72057,9.73286 -0.32998,-0.002 -1.96914,-0.83869 -3.64258,-1.85918 z m 8.98356,-4.64469 c 3.25936,-3.25936 4.86492,-7.10599 6.99484,-16.75837 0.51781,-2.34663 0.20214,-2.92118 -2.08212,-3.78966 -5.25183,-1.99674 -23.35366,-1.0696 -23.35366,1.19613 0,0.53059 0.71674,4.11596 1.59275,7.9675 1.25844,5.53293 2.38038,7.83077 5.34517,10.94741 2.06814,2.17407 4.70464,3.9446 5.87391,3.9446 1.16683,0 3.69993,-1.57843 5.62911,-3.50761 z m 21.43146,3.85386 c -0.61451,-0.74044 -1.57309,-1.34625 -2.13017,-1.34625 -1.66813,0 -5.74223,-4.96117 -5.74223,-6.99251 0,-1.0392 -0.43526,-2.15846 -0.96725,-2.48725 -1.18479,-0.73224 -0.20777,-6.46329 1.45251,-8.52024 0.66591,-0.825 1.49002,-2.2875 1.83136,-3.25 0.34133,-0.9625 1.26159,-1.75 2.04501,-1.75 0.78341,0 1.70133,-0.72169 2.03981,-1.60375 0.36674,-0.95572 1.2474,-1.36124 2.17943,-1.00359 0.86021,0.33009 2.40411,0.15056 3.43088,-0.39895 1.24504,-0.66632 2.07329,-0.66513 2.48658,0.004 0.34084,0.55149 1.60565,1.01889 2.81069,1.03867 2.63629,0.0433 6.82707,3.5208 8.39239,6.96403 1.68686,3.71061 2.3687,8.83864 1.26584,9.52025 -0.53199,0.32878 -0.96725,1.28664 -0.96725,2.12858 0,2.05955 -5.09648,7.35117 -7.08009,7.35117 -0.87262,0 -1.87066,0.28408 -2.21787,0.6313 -1.24982,1.24981 -7.72942,1.04063 -8.82964,-0.28505 z m 9.56887,-2.75381 c 5.65578,-2.99572 6.68347,-4.32368 6.99903,-9.04397 0.33295,-4.98041 -1.16397,-9.52782 -3.14061,-9.54067 -0.66017,-0.004 -1.56017,-0.64127 -2,-1.41551 -0.77047,-1.35627 -4.39669,-2.05847 -9.00155,-1.74309 -1.21103,0.0829 -3.71798,1.71189 -5.57101,3.6199 -2.94982,3.03733 -3.336,4.03169 -3.10287,7.98934 0.29491,5.00617 2.93061,9.46174 5.62574,9.51013 0.9625,0.0173 1.75,0.45133 1.75,0.96455 0,1.25755 5.87123,1.02059 8.44127,-0.34068 z"
         id="path7956"
         inkscape:connector-curvature="0"
         sodipodi:nodetypes="sscssssssssssscssssssssssssssssssssscssssssssscsssssssssccscsscccsscscsscss" />
      <path
         style="fill:#1acebd"
         d="m 204.83929,882.47365 c -6.09963,-3.71915 -8.32163,-12.22761 -4.9141,-18.81702 2.15314,-4.16372 5.60601,-6.35535 10.96426,-6.9593 15.14501,-1.70706 21.87718,19.65545 8.2344,26.12938 -4.55894,2.16336 -10.39403,2.01914 -14.28456,-0.35306 z m 16.53438,-4.55524 c 3.06251,-3.34177 3.35149,-4.15674 2.89862,-8.17454 -0.93192,-8.26799 -8.28477,-12.93337 -16.24376,-10.30667 -6.51773,2.15105 -9.4076,10.38278 -5.97522,17.02028 2.15677,4.17072 6.09325,6.09227 11.45308,5.59067 3.59733,-0.33666 5.12708,-1.13967 7.86728,-4.12974 z"
         id="path7954"
         inkscape:connector-curvature="0"
         sodipodi:nodetypes="sssssssssss" />
    </g>
  </g>
  <g
     inkscape:groupmode="layer"
     id="layer2"
     inkscape:label="circle"
     style="display:inline">
    <path
       sodipodi:type="arc"
       style="fill:none;fill-opacity:1;fill-rule:nonzero;stroke:none;stroke-width:8;stroke-miterlimit:4;stroke-opacity:1;stroke-dasharray:none"
       id="path7675"
       sodipodi:cx="113.13708"
       sodipodi:cy="226.0574"
       sodipodi:rx="222.23357"
       sodipodi:ry="222.23357"
       d="m 335.37064,226.0574 a 222.23357,222.23357 0 1 1 -444.46713,0 222.23357,222.23357 0 1 1 444.46713,0 z"
       transform="matrix(1.2411147,0,0,1.2411147,213.13731,185.91054)"
       inkscape:export-filename="/home/erika/DEV/p2pu/p2pu-website/images/icons/megaphone.png"
       inkscape:export-xdpi="16.026625"
       inkscape:export-ydpi="16.026625" />
  </g>
  <g
     inkscape:label="Layer 1"
     inkscape:groupmode="layer"
     id="layer1">
    <path
       style="fill:none;stroke:#ffffff;stroke-width:15;stroke-linecap:round;stroke-linejoin:miter;stroke-opacity:1;stroke-miterlimit:23.89999962;stroke-dasharray:none"
       d="m 169.70414,402.36218 c 0.71428,-0.84555 0.59172,120.29587 0.59172,120.29587 l 69.45904,-0.29587 161.29115,80.80095 -0.41842,-272.64794 -161.46446,71.42857 z"
       id="path7633"
       inkscape:connector-curvature="0"
       sodipodi:nodetypes="ccccccc"
       inkscape:export-filename="/home/erika/DEV/p2pu/p2pu-website/images/icons/megaphone.png"
       inkscape:export-xdpi="16.026625"
       inkscape:export-ydpi="16.026625" />
    <path
       style="fill:none;stroke:#ffffff;stroke-width:15;stroke-linecap:round;stroke-linejoin:miter;stroke-opacity:1;stroke-miterlimit:23.89999962;stroke-dasharray:none"
       d="m 471.24359,342.84731 c 70.45866,59.64586 69.51504,179.57421 -0.12782,249.21707"
       id="path7637"
       inkscape:connector-curvature="0"
       sodipodi:nodetypes="cc"
       inkscape:export-filename="/home/erika/DEV/p2pu/p2pu-website/images/icons/megaphone.png"
       inkscape:export-xdpi="16.026625"
       inkscape:export-ydpi="16.026625" />
    <path
       style="fill:none;stroke:#ffffff;stroke-width:15;stroke-linecap:round;stroke-linejoin:miter;stroke-miterlimit:23.89999962;stroke-opacity:1;stroke-dasharray:none"
       d="m 449.89431,364.76921 c 56.36544,47.71543 55.61057,143.65557 -0.10225,199.36839"
       id="path7637-4"
       inkscape:connector-curvature="0"
       sodipodi:nodetypes="cc"
       inkscape:export-filename="/home/erika/DEV/p2pu/p2pu-website/images/icons/megaphone.png"
       inkscape:export-xdpi="16.026625"
       inkscape:export-ydpi="16.026625" />
    <path
       style="fill:none;stroke:#ffffff;stroke-width:15;stroke-linecap:round;stroke-linejoin:miter;stroke-miterlimit:23.89999962;stroke-opacity:1;stroke-dasharray:none"
       d="m 430.59376,393.92866 c 40.4487,34.24132 39.907,103.08942 -0.0734,143.06979"
       id="path7637-4-4"
       inkscape:connector-curvature="0"
       sodipodi:nodetypes="cc"
       inkscape:export-filename="/home/erika/DEV/p2pu/p2pu-website/images/icons/megaphone.png"
       inkscape:export-xdpi="16.026625"
       inkscape:export-ydpi="16.026625" />
  </g>
</svg>
