<?xml version="1.0" encoding="UTF-8" standalone="no"?>
<svg
   xmlns:dc="http://purl.org/dc/elements/1.1/"
   xmlns:cc="http://creativecommons.org/ns#"
   xmlns:rdf="http://www.w3.org/1999/02/22-rdf-syntax-ns#"
   xmlns:svg="http://www.w3.org/2000/svg"
   xmlns="http://www.w3.org/2000/svg"
   xmlns:sodipodi="http://sodipodi.sourceforge.net/DTD/sodipodi-0.dtd"
   xmlns:inkscape="http://www.inkscape.org/namespaces/inkscape"
   width="160"
   height="160"
   viewBox="0 0 160 160"
   fill="none"
   version="1.1"
   id="svg36"
   sodipodi:docname="explore-lcs-regular-meetings.svg"
   inkscape:version="0.92.5 (2060ec1f9f, 2020-04-08)">
  <metadata
     id="metadata42">
    <rdf:RDF>
      <cc:Work
         rdf:about="">
        <dc:format>image/svg+xml</dc:format>
        <dc:type
           rdf:resource="http://purl.org/dc/dcmitype/StillImage" />
      </cc:Work>
    </rdf:RDF>
  </metadata>
  <defs
     id="defs40" />
  <sodipodi:namedview
     pagecolor="#ffffff"
     bordercolor="#666666"
     borderopacity="1"
     objecttolerance="10"
     gridtolerance="10"
     guidetolerance="10"
     inkscape:pageopacity="0"
     inkscape:pageshadow="2"
     inkscape:window-width="1557"
     inkscape:window-height="1016"
     id="namedview38"
     showgrid="false"
     inkscape:zoom="2.95"
     inkscape:cx="20.23834"
     inkscape:cy="68.784332"
     inkscape:window-x="72"
     inkscape:window-y="27"
     inkscape:window-maximized="0"
     inkscape:current-layer="svg36" />
  <rect
     x="51.0345"
     y="44.6207"
     width="20.6897"
     height="20.6897"
     fill="#0FCBB8"
     id="rect4" />
  <rect
     x="51.0345"
     y="80.4828"
     width="20.6897"
     height="20.6897"
     fill="#0FCBB8"
     id="rect6" />
  <rect
     x="51.0345"
     y="116.345"
     width="20.6897"
     height="20.6897"
     fill="#0FCBB8"
     id="rect8" />
  <path
     d="M160 146.69V19.7931C159.998 17.5989 159.125 15.4953 157.573 13.9438C156.022 12.3923 153.918 11.5196 151.724 11.5172H148.966V8.75862C148.966 8.02699 148.675 7.32532 148.158 6.80798C147.64 6.29064 146.939 6 146.207 6C145.475 6 144.774 6.29064 144.256 6.80798C143.739 7.32532 143.448 8.02699 143.448 8.75862V11.5172H137.931V8.75862C137.931 8.02699 137.64 7.32532 137.123 6.80798C136.606 6.29064 135.904 6 135.172 6C134.441 6 133.739 6.29064 133.222 6.80798C132.704 7.32532 132.414 8.02699 132.414 8.75862V11.5172H126.897V8.75862C126.897 8.02699 126.606 7.32532 126.089 6.80798C125.571 6.29064 124.87 6 124.138 6C123.406 6 122.705 6.29064 122.187 6.80798C121.67 7.32532 121.379 8.02699 121.379 8.75862V11.5172H115.862V8.75862C115.862 8.02699 115.571 7.32532 115.054 6.80798C114.537 6.29064 113.835 6 113.103 6C112.372 6 111.67 6.29064 111.153 6.80798C110.635 7.32532 110.345 8.02699 110.345 8.75862V11.5172H104.828V8.75862C104.828 8.02699 104.537 7.32532 104.02 6.80798C103.502 6.29064 102.801 6 102.069 6C101.337 6 100.636 6.29064 100.118 6.80798C99.601 7.32532 99.3103 8.02699 99.3103 8.75862V11.5172H93.7931V8.75862C93.7931 8.02699 93.5025 7.32532 92.9851 6.80798C92.4678 6.29064 91.7661 6 91.0345 6C90.3029 6 89.6012 6.29064 89.0838 6.80798C88.5665 7.32532 88.2759 8.02699 88.2759 8.75862V11.5172H82.7586V8.75862C82.7586 8.02699 82.468 7.32532 81.9506 6.80798C81.4333 6.29064 80.7316 6 80 6C79.2684 6 78.5667 6.29064 78.0494 6.80798C77.532 7.32532 77.2414 8.02699 77.2414 8.75862V11.5172H71.7241V8.75862C71.7241 8.02699 71.4335 7.32532 70.9162 6.80798C70.3988 6.29064 69.6972 6 68.9655 6C68.2339 6 67.5322 6.29064 67.0149 6.80798C66.4975 7.32532 66.2069 8.02699 66.2069 8.75862V11.5172H60.6897V8.75862C60.6897 8.02699 60.399 7.32532 59.8817 6.80798C59.3643 6.29064 58.6627 6 57.931 6C57.1994 6 56.4977 6.29064 55.9804 6.80798C55.4631 7.32532 55.1724 8.02699 55.1724 8.75862V11.5172H49.6552V8.75862C49.6552 8.02699 49.3645 7.32532 48.8472 6.80798C48.3299 6.29064 47.6282 6 46.8966 6C46.1649 6 45.4633 6.29064 44.9459 6.80798C44.4286 7.32532 44.1379 8.02699 44.1379 8.75862V11.5172H38.5345V8.75862C38.5345 8.02699 38.2438 7.32532 37.7265 6.80798C37.2092 6.29064 36.5075 6 35.7759 6C35.0442 6 34.3426 6.29064 33.8252 6.80798C33.3079 7.32532 33.0172 8.02699 33.0172 8.75862V11.5172H27.5862V8.75862C27.5862 8.02699 27.2956 7.32532 26.7782 6.80798C26.2609 6.29064 25.5592 6 24.8276 6C24.096 6 23.3943 6.29064 22.8769 6.80798C22.3596 7.32532 22.069 8.02699 22.069 8.75862V11.5172H16.5517V8.75862C16.5517 8.02699 16.2611 7.32532 15.7437 6.80798C15.2264 6.29064 14.5247 6 13.7931 6C13.0615 6 12.3598 6.29064 11.8425 6.80798C11.3251 7.32532 11.0345 8.02699 11.0345 8.75862V11.5172H8.27586C6.0817 11.5196 3.9781 12.3923 2.42659 13.9438C0.875083 15.4953 0.00239502 17.5989 0 19.7931L0 146.69C0.00239502 148.884 0.875083 150.987 2.42659 152.539C3.9781 154.09 6.0817 154.963 8.27586 154.966H151.724C153.918 154.963 156.022 154.09 157.573 152.539C159.125 150.987 159.998 148.884 160 146.69V146.69ZM8.27586 17.0345H11.0345V19.7931C11.0345 20.5247 11.3251 21.2264 11.8425 21.7437C12.3598 22.2611 13.0615 22.5517 13.7931 22.5517C14.5247 22.5517 15.2264 22.2611 15.7437 21.7437C16.2611 21.2264 16.5517 20.5247 16.5517 19.7931V17.0345H22.069V19.7931C22.069 20.5247 22.3596 21.2264 22.8769 21.7437C23.3943 22.2611 24.096 22.5517 24.8276 22.5517C25.5592 22.5517 26.2609 22.2611 26.7782 21.7437C27.2956 21.2264 27.5862 20.5247 27.5862 19.7931V17.0345H33.0172V19.7931C33.0172 20.5247 33.3079 21.2264 33.8252 21.7437C34.3426 22.2611 35.0442 22.5517 35.7759 22.5517C36.5075 22.5517 37.2092 22.2611 37.7265 21.7437C38.2438 21.2264 38.5345 20.5247 38.5345 19.7931V17.0345H44.1379V19.7931C44.1379 20.5247 44.4286 21.2264 44.9459 21.7437C45.4633 22.2611 46.1649 22.5517 46.8966 22.5517C47.6282 22.5517 48.3299 22.2611 48.8472 21.7437C49.3645 21.2264 49.6552 20.5247 49.6552 19.7931V17.0345H55.1724V19.7931C55.1724 20.5247 55.4631 21.2264 55.9804 21.7437C56.4977 22.2611 57.1994 22.5517 57.931 22.5517C58.6627 22.5517 59.3643 22.2611 59.8817 21.7437C60.399 21.2264 60.6897 20.5247 60.6897 19.7931V17.0345H66.2069V19.7931C66.2069 20.5247 66.4975 21.2264 67.0149 21.7437C67.5322 22.2611 68.2339 22.5517 68.9655 22.5517C69.6972 22.5517 70.3988 22.2611 70.9162 21.7437C71.4335 21.2264 71.7241 20.5247 71.7241 19.7931V17.0345H77.2414V19.7931C77.2414 20.5247 77.532 21.2264 78.0494 21.7437C78.5667 22.2611 79.2684 22.5517 80 22.5517C80.7316 22.5517 81.4333 22.2611 81.9506 21.7437C82.468 21.2264 82.7586 20.5247 82.7586 19.7931V17.0345H88.2759V19.7931C88.2759 20.5247 88.5665 21.2264 89.0838 21.7437C89.6012 22.2611 90.3029 22.5517 91.0345 22.5517C91.7661 22.5517 92.4678 22.2611 92.9851 21.7437C93.5025 21.2264 93.7931 20.5247 93.7931 19.7931V17.0345H99.3103V19.7931C99.3103 20.5247 99.601 21.2264 100.118 21.7437C100.636 22.2611 101.337 22.5517 102.069 22.5517C102.801 22.5517 103.502 22.2611 104.02 21.7437C104.537 21.2264 104.828 20.5247 104.828 19.7931V17.0345H110.345V19.7931C110.345 20.5247 110.635 21.2264 111.153 21.7437C111.67 22.2611 112.372 22.5517 113.103 22.5517C113.835 22.5517 114.537 22.2611 115.054 21.7437C115.571 21.2264 115.862 20.5247 115.862 19.7931V17.0345H121.379V19.7931C121.379 20.5247 121.67 21.2264 122.187 21.7437C122.705 22.2611 123.406 22.5517 124.138 22.5517C124.87 22.5517 125.571 22.2611 126.089 21.7437C126.606 21.2264 126.897 20.5247 126.897 19.7931V17.0345H132.414V19.7931C132.414 20.5247 132.704 21.2264 133.222 21.7437C133.739 22.2611 134.441 22.5517 135.172 22.5517C135.904 22.5517 136.606 22.2611 137.123 21.7437C137.64 21.2264 137.931 20.5247 137.931 19.7931V17.0345H143.448V19.7931C143.448 20.5247 143.739 21.2264 144.256 21.7437C144.774 22.2611 145.475 22.5517 146.207 22.5517C146.939 22.5517 147.64 22.2611 148.158 21.7437C148.675 21.2264 148.966 20.5247 148.966 19.7931V17.0345H151.724C152.456 17.0353 153.157 17.3262 153.674 17.8434C154.191 18.3605 154.482 19.0617 154.483 19.7931V28.069H5.51724V19.7931C5.51808 19.0617 5.80899 18.3605 6.32615 17.8434C6.84331 17.3262 7.54449 17.0353 8.27586 17.0345ZM5.51724 146.69V33.5862H154.483V146.69C154.482 147.421 154.191 148.122 153.674 148.639C153.157 149.157 152.456 149.447 151.724 149.448H8.27586C7.54449 149.447 6.84331 149.157 6.32615 148.639C5.80899 148.122 5.51808 147.421 5.51724 146.69Z"
     id="path10"
     fill="#646462" />
  <path
     d="M106.207 77.7241H89.6552C88.1924 77.7257 86.79 78.3075 85.7556 79.3418C84.7213 80.3762 84.1395 81.7786 84.1379 83.2414V99.7931C84.1395 101.256 84.7213 102.658 85.7556 103.693C86.79 104.727 88.1924 105.309 89.6552 105.31H106.207C107.67 105.309 109.072 104.727 110.106 103.693C111.141 102.658 111.723 101.256 111.724 99.7931V83.2414C111.723 81.7786 111.141 80.3762 110.106 79.3418C109.072 78.3075 107.67 77.7257 106.207 77.7241V77.7241ZM89.6552 99.7931V83.2414H106.207L106.21 99.7931H89.6552Z"
     fill="#646462"
     id="path12" />
  <path
     d="M89.6552 69.4483H106.207C107.67 69.4467 109.072 68.8649 110.106 67.8306C111.141 66.7962 111.723 65.3938 111.724 63.931V47.3793C111.723 45.9165 111.141 44.5141 110.106 43.4798C109.072 42.4454 107.67 41.8636 106.207 41.8621H89.6552C88.1924 41.8636 86.79 42.4454 85.7556 43.4798C84.7213 44.5141 84.1395 45.9165 84.1379 47.3793V63.931C84.1395 65.3938 84.7213 66.7962 85.7556 67.8306C86.79 68.8649 88.1924 69.4467 89.6552 69.4483V69.4483ZM89.6552 47.3793H106.207L106.21 63.931H89.6552V47.3793Z"
     fill="#646462"
     id="path14" />
  <path
     d="M142.069 41.8621H125.517C124.054 41.8636 122.652 42.4454 121.618 43.4798C120.583 44.5141 120.002 45.9165 120 47.3793V63.931C120.002 65.3938 120.583 66.7962 121.618 67.8306C122.652 68.8649 124.054 69.4467 125.517 69.4483H142.069C143.532 69.4467 144.934 68.8649 145.969 67.8306C147.003 66.7962 147.585 65.3938 147.586 63.931V47.3793C147.585 45.9165 147.003 44.5141 145.969 43.4798C144.934 42.4454 143.532 41.8636 142.069 41.8621V41.8621ZM125.517 63.931V47.3793H142.069L142.072 63.931H125.517Z"
     fill="#646462"
     id="path16" />
  <path
     d="M34.4828 77.7241H17.931C16.4682 77.7257 15.0658 78.3075 14.0315 79.3418C12.9971 80.3762 12.4153 81.7786 12.4138 83.2414V99.7931C12.4153 101.256 12.9971 102.658 14.0315 103.693C15.0658 104.727 16.4682 105.309 17.931 105.31H34.4828C35.9455 105.309 37.348 104.727 38.3823 103.693C39.4167 102.658 39.9984 101.256 40 99.7931V83.2414C39.9984 81.7786 39.4167 80.3762 38.3823 79.3418C37.348 78.3075 35.9455 77.7257 34.4828 77.7241V77.7241ZM17.931 99.7931V83.2414H34.4828L34.4861 99.7931H17.931Z"
     fill="#646462"
     id="path18" />
  <path
     d="M34.4828 41.8621H17.931C16.4682 41.8636 15.0658 42.4454 14.0315 43.4798C12.9971 44.5141 12.4153 45.9165 12.4138 47.3793V63.931C12.4153 65.3938 12.9971 66.7962 14.0315 67.8306C15.0658 68.8649 16.4682 69.4467 17.931 69.4483H34.4828C35.9455 69.4467 37.348 68.8649 38.3823 67.8306C39.4167 66.7962 39.9984 65.3938 40 63.931V47.3793C39.9984 45.9165 39.4167 44.5141 38.3823 43.4798C37.348 42.4454 35.9455 41.8636 34.4828 41.8621V41.8621ZM17.931 63.931V47.3793H34.4828L34.4861 63.931H17.931Z"
     fill="#646462"
     id="path20" />
  <path
     d="M142.069 77.7241H125.517C124.054 77.7257 122.652 78.3075 121.618 79.3418C120.583 80.3762 120.002 81.7786 120 83.2414V99.7931C120.002 101.256 120.583 102.658 121.618 103.693C122.652 104.727 124.054 105.309 125.517 105.31H142.069C143.532 105.309 144.934 104.727 145.969 103.693C147.003 102.658 147.585 101.256 147.586 99.7931V83.2414C147.585 81.7786 147.003 80.3762 145.969 79.3418C144.934 78.3075 143.532 77.7257 142.069 77.7241V77.7241ZM125.517 99.7931V83.2414H142.069L142.072 99.7931H125.517Z"
     fill="#646462"
     id="path22" />
  <path
     d="M34.4828 113.586H17.931C16.4682 113.588 15.0658 114.17 14.0315 115.204C12.9971 116.238 12.4153 117.641 12.4138 119.103V135.655C12.4153 137.118 12.9971 138.52 14.0315 139.555C15.0658 140.589 16.4682 141.171 17.931 141.172H34.4828C35.9455 141.171 37.348 140.589 38.3823 139.555C39.4167 138.52 39.9984 137.118 40 135.655V119.103C39.9984 117.641 39.4167 116.238 38.3823 115.204C37.348 114.17 35.9455 113.588 34.4828 113.586V113.586ZM17.931 135.655V119.103H34.4828L34.4861 135.655H17.931Z"
     fill="#646462"
     id="path24" />
  <path
     d="M106.207 113.586H89.6552C88.1924 113.588 86.79 114.17 85.7556 115.204C84.7213 116.238 84.1395 117.641 84.1379 119.103V135.655C84.1395 137.118 84.7213 138.52 85.7556 139.555C86.79 140.589 88.1924 141.171 89.6552 141.172H106.207C107.67 141.171 109.072 140.589 110.106 139.555C111.141 138.52 111.723 137.118 111.724 135.655V119.103C111.723 117.641 111.141 116.238 110.106 115.204C109.072 114.17 107.67 113.588 106.207 113.586V113.586ZM89.6552 135.655V119.103H106.207L106.21 135.655H89.6552Z"
     id="path26"
     fill="#646462" />
  <path
     d="M142.069 113.586H125.517C124.054 113.588 122.652 114.17 121.618 115.204C120.583 116.238 120.002 117.641 120 119.103V135.655C120.002 137.118 120.583 138.52 121.618 139.555C122.652 140.589 124.054 141.171 125.517 141.172H142.069C143.532 141.171 144.934 140.589 145.969 139.555C147.003 138.52 147.585 137.118 147.586 135.655V119.103C147.585 117.641 147.003 116.238 145.969 115.204C144.934 114.17 143.532 113.588 142.069 113.586V113.586ZM125.517 135.655V119.103H142.069L142.072 135.655H125.517Z"
     fill="#646462"
     id="path28" />
  <path
     d="M75.8621 52.9406V47.3793C75.8605 45.9165 75.2787 44.5141 74.2444 43.4798C73.21 42.4454 71.8076 41.8636 70.3448 41.8621H53.7931C52.3303 41.8636 50.9279 42.4454 49.8935 43.4798C48.8592 44.5141 48.2774 45.9165 48.2759 47.3793V63.931C48.2774 65.3938 48.8592 66.7962 49.8935 67.8306C50.9279 68.8649 52.3303 69.4467 53.7931 69.4483H70.3448C71.8076 69.4467 73.21 68.8649 74.2444 67.8306C75.2787 66.7962 75.8605 65.3938 75.8621 63.931V52.9406ZM53.7931 63.931V47.3793H70.3448L70.3456 51.0328L64.0282 53.5754L63.0873 51.9227C62.7254 51.2868 62.1257 50.8207 61.4202 50.6269C60.7147 50.4332 59.9611 50.5277 59.3252 50.8895C58.6893 51.2514 58.2232 51.8511 58.0294 52.5566C57.8357 53.2622 57.9301 54.0158 58.292 54.6517L60.425 58.399C60.7551 58.979 61.2843 59.4197 61.9145 59.6394C62.5447 59.859 63.2332 59.8428 63.8524 59.5937L70.3468 56.9798L70.3482 63.931H53.7931Z"
     fill="#646462"
     id="path30" />
  <path
     d="M75.8621 88.8026V83.2414C75.8605 81.7786 75.2787 80.3762 74.2444 79.3418C73.21 78.3075 71.8076 77.7257 70.3448 77.7241H53.7931C52.3303 77.7257 50.9279 78.3075 49.8935 79.3418C48.8592 80.3762 48.2774 81.7786 48.2759 83.2414V99.7931C48.2774 101.256 48.8592 102.658 49.8935 103.693C50.9279 104.727 52.3303 105.309 53.7931 105.31H70.3448C71.8076 105.309 73.21 104.727 74.2444 103.693C75.2787 102.658 75.8605 101.256 75.8621 99.7931V88.8026ZM53.7931 99.7931V83.2414H70.3448L70.3456 86.8949L64.0282 89.4375L63.0873 87.7847C62.7254 87.1489 62.1257 86.6828 61.4202 86.489C60.7147 86.2953 59.9611 86.3897 59.3252 86.7516C58.6893 87.1135 58.2232 87.7132 58.0294 88.4187C57.8357 89.1242 57.9301 89.8778 58.292 90.5137L60.425 94.261C60.7551 94.8411 61.2843 95.2817 61.9145 95.5014C62.5447 95.7211 63.2332 95.7049 63.8524 95.4558L70.3468 92.8419L70.3482 99.7931H53.7931Z"
     fill="#646462"
     id="path32" />
  <path
     d="M75.8621 124.665V119.103C75.8605 117.641 75.2787 116.238 74.2444 115.204C73.21 114.17 71.8076 113.588 70.3448 113.586H53.7931C52.3303 113.588 50.9279 114.17 49.8935 115.204C48.8592 116.238 48.2774 117.641 48.2759 119.103V135.655C48.2774 137.118 48.8592 138.52 49.8935 139.555C50.9279 140.589 52.3303 141.171 53.7931 141.172H70.3448C71.8076 141.171 73.21 140.589 74.2444 139.555C75.2787 138.52 75.8605 137.118 75.8621 135.655V124.665ZM53.7931 135.655V119.103H70.3448L70.3456 122.757L64.0282 125.3L63.0873 123.647C62.7254 123.011 62.1257 122.545 61.4202 122.351C60.7147 122.157 59.9611 122.252 59.3252 122.614C58.6893 122.976 58.2232 123.575 58.0294 124.281C57.8357 124.986 57.9301 125.74 58.292 126.376L60.425 130.123C60.7551 130.703 61.2843 131.144 61.9145 131.363C62.5447 131.583 63.2332 131.567 63.8524 131.318L70.3468 128.704L70.3482 135.655H53.7931Z"
     fill="#646462"
     id="path34" />
</svg>
