<svg width="160" height="160" viewBox="0 0 160 160" fill="none" xmlns="http://www.w3.org/2000/svg">
<rect width="160" height="160" fill="white"/>
<circle cx="80.3158" cy="127.205" r="32.0366" fill="#BFDC0D"/>
<path d="M152.805 11.6211C150.964 11.6211 148.955 11.7895 146.947 11.7895H146.779V4.54737C146.779 2.02105 144.771 0 142.26 0C120.669 0 99.5796 4.21053 79.662 12.4632C59.7444 4.21053 38.6551 0 17.0637 0C14.5531 0 12.5446 1.85263 12.5446 4.54737V11.9579H12.3772C10.3687 11.7895 8.36025 11.6211 6.35175 11.6211C3.84112 11.6211 2 13.6421 2 16.1684V105.768C2 108.295 3.84112 110.147 6.35175 110.147C20.5786 110.147 34.6381 111.832 48.1955 115.2C47.0239 118.737 46.187 122.442 46.187 126.316C46.187 144.842 61.2507 160 79.662 160C98.0732 160 113.137 144.842 113.137 126.316C113.137 122.442 112.3 118.737 111.128 115.2C124.853 111.832 138.745 110.147 152.972 110.147C155.483 110.147 157.491 108.295 157.491 105.768V16.1684C157.324 13.6421 155.315 11.6211 152.805 11.6211ZM21.4155 8.92632C39.8267 9.43158 57.9032 13.3053 75.3102 20.3789V93.1368C69.2847 93.9789 63.9287 96.3368 59.4096 99.8737C47.0239 96.5053 34.3034 94.4842 21.5829 94.1474V8.92632H21.4155ZM79.662 152.084C65.6025 152.084 54.221 140.632 54.221 126.484C54.221 112.337 65.6025 100.716 79.662 100.716C93.7215 100.716 105.103 112.168 105.103 126.316C105.103 140.463 93.7215 152.084 79.662 152.084ZM137.908 94.1474C125.188 94.4842 112.467 96.5053 100.082 99.8737C95.5626 96.3368 90.0392 93.9789 84.1811 93.1368V20.3789C101.421 13.3053 119.497 9.43158 137.908 8.92632V94.1474Z" fill="#646462"/>
<path d="M33.4665 31.1579C42.8395 32.1684 52.2125 34.021 61.4181 36.8842C61.7529 37.0526 62.255 37.0526 62.7571 37.0526C64.7656 37.0526 66.4394 35.7053 66.9415 33.8526C67.611 31.4947 66.272 28.9684 63.9287 28.2947C54.221 25.4316 44.3459 23.4105 34.4708 22.2316C32.1275 22.0632 29.9516 23.7474 29.6169 26.1053C29.4495 27.2842 29.7843 28.4632 30.6211 29.3053C31.2906 30.4842 32.2949 31.1579 33.4665 31.1579Z" fill="#646462"/>
<path d="M33.4665 48.1684C42.8395 49.1789 52.2125 51.0316 61.4181 53.8947C61.7529 54.0632 62.255 54.0631 62.5897 54.0631C64.5982 54.0631 66.272 52.7158 66.7741 50.8632C67.4436 48.5053 66.1046 45.9789 63.7614 45.3053C54.221 42.4421 44.1785 40.421 34.3034 39.2421C31.7927 39.0737 29.7842 40.7579 29.4495 43.1158C29.2821 44.2947 29.6169 45.4737 30.4537 46.3158C31.2906 47.4947 32.2949 48.1684 33.4665 48.1684Z" fill="#646462"/>
<path d="M33.4665 65.1789C42.8395 66.1895 52.2125 68.0421 61.4181 70.9053C61.7529 71.0737 62.255 71.0737 62.7571 71.0737C64.7656 71.0737 66.4394 69.7263 66.9415 67.8737C67.611 65.5158 66.272 62.9895 63.9287 62.3158C54.3884 59.4526 44.3459 57.4316 34.4708 56.2526C32.1275 56.0842 29.9516 57.7684 29.6169 60.1263C29.4495 61.3053 29.7843 62.4842 30.6211 63.3263C31.2906 64.5053 32.2949 65.0105 33.4665 65.1789Z" fill="#646462"/>
<path d="M61.4181 87.9158C61.7529 88.0842 62.255 88.0842 62.5897 88.0842C64.5982 88.0842 66.272 86.7368 66.7741 84.8842C67.4436 82.5263 66.1046 80 63.7614 79.3263C54.221 76.4632 44.1785 74.4421 34.3034 73.2632C31.7927 72.9263 29.6169 74.779 29.4495 77.1368C29.2821 78.3158 29.6169 79.4947 30.4537 80.3368C31.1232 81.3474 32.2949 81.8526 33.4665 82.0211C42.8395 83.2 52.2125 85.0526 61.4181 87.9158Z" fill="#646462"/>
<path d="M96.7342 37.0526C97.2364 37.0526 97.5711 37.0526 98.0732 36.8842C107.111 34.1895 116.652 32.1684 126.025 31.1579C127.196 30.9895 128.201 30.4842 129.038 29.4737C129.707 28.4632 130.042 27.4526 130.042 26.2737C129.874 23.9158 127.866 22.2316 125.523 22.2316C125.355 22.2316 125.355 22.2316 125.188 22.2316C115.313 23.2421 105.438 25.2632 95.73 28.2947C94.5584 28.6316 93.7215 29.4737 93.052 30.4842C92.5499 31.4947 92.3825 32.6737 92.7172 33.8526C93.052 35.8737 94.7257 37.0526 96.7342 37.0526Z" fill="#646462"/>
<path d="M96.7342 54.0631C97.2364 54.0631 97.5711 54.0632 98.0732 53.8947C107.111 51.2 116.652 49.1789 126.025 48.1684C127.196 48 128.201 47.4947 129.038 46.4842C129.707 45.4737 130.042 44.4632 130.042 43.2842C129.707 40.9263 127.531 39.0737 125.188 39.4105C115.313 40.421 105.27 42.4421 95.73 45.4737C94.5584 45.8105 93.7215 46.6526 93.052 47.6631C92.5499 48.6737 92.3825 49.8526 92.7172 51.0316C93.052 52.7158 94.7257 54.0631 96.7342 54.0631Z" fill="#646462"/>
<path d="M96.7342 71.0737C97.2364 71.0737 97.5711 71.0737 98.0732 70.9053C107.111 68.2105 116.484 66.1895 126.025 65.1789C127.196 65.0105 128.201 64.5053 129.038 63.4947C129.707 62.4842 130.042 61.4737 130.042 60.2947C129.707 57.9368 127.531 56.0842 125.188 56.2526C115.313 57.2632 105.27 59.2842 95.73 62.3158C94.5584 62.6526 93.7215 63.4947 93.052 64.5053C92.5499 65.5158 92.3825 66.6947 92.7172 67.8737C93.052 69.7263 94.7257 71.0737 96.7342 71.0737Z" fill="#646462"/>
<path d="M96.7342 88.0842C97.2364 88.0842 97.5711 88.0842 98.0732 87.9158C107.111 85.2211 116.652 83.2 126.025 82.1895C127.196 82.021 128.201 81.5158 129.038 80.5053C129.707 79.6632 130.042 78.4842 130.042 77.3053C129.707 74.9474 127.531 73.0947 125.188 73.4316C115.313 74.4421 105.27 76.4632 95.73 79.4947C94.5584 79.8316 93.7215 80.6737 93.052 81.6842C92.5499 82.6947 92.3825 83.8737 92.7172 85.0526C93.052 86.7368 94.7257 88.0842 96.7342 88.0842Z" fill="#646462"/>
<path d="M75.9797 113.011C73.8039 111.495 70.9585 113.179 70.9585 115.705V136.758C70.9585 139.284 73.8039 140.968 75.9797 139.453L91.713 128.842C93.7215 127.495 93.7215 124.632 91.713 123.453L75.9797 113.011Z" fill="#646462"/>
</svg>
