<?xml version="1.0" encoding="UTF-8" standalone="no"?>
<svg
   xmlns:dc="http://purl.org/dc/elements/1.1/"
   xmlns:cc="http://creativecommons.org/ns#"
   xmlns:rdf="http://www.w3.org/1999/02/22-rdf-syntax-ns#"
   xmlns:svg="http://www.w3.org/2000/svg"
   xmlns="http://www.w3.org/2000/svg"
   xmlns:sodipodi="http://sodipodi.sourceforge.net/DTD/sodipodi-0.dtd"
   xmlns:inkscape="http://www.inkscape.org/namespaces/inkscape"
   width="161"
   height="160"
   viewBox="0 0 161 160"
   fill="none"
   version="1.1"
   id="svg14"
   sodipodi:docname="explore-lcs-peer-learning.svg"
   inkscape:version="0.92.5 (2060ec1f9f, 2020-04-08)">
  <metadata
     id="metadata20">
    <rdf:RDF>
      <cc:Work
         rdf:about="">
        <dc:format>image/svg+xml</dc:format>
        <dc:type
           rdf:resource="http://purl.org/dc/dcmitype/StillImage" />
      </cc:Work>
    </rdf:RDF>
  </metadata>
  <defs
     id="defs18" />
  <sodipodi:namedview
     pagecolor="#ffffff"
     bordercolor="#666666"
     borderopacity="1"
     objecttolerance="10"
     gridtolerance="10"
     guidetolerance="10"
     inkscape:pageopacity="0"
     inkscape:pageshadow="2"
     inkscape:window-width="1848"
     inkscape:window-height="1016"
     id="namedview16"
     showgrid="false"
     inkscape:zoom="2.95"
     inkscape:cx="129.0474"
     inkscape:cy="97.565448"
     inkscape:window-x="72"
     inkscape:window-y="27"
     inkscape:window-maximized="1"
     inkscape:current-layer="svg14" />
  <path
     d="M160.856 95.4919C161.556 98.9393 159.652 101.697 156.376 101.697H150.689L150.171 108.252L147.241 143.762C146.891 147.209 144.309 150.138 141.379 150.138H130.691C127.761 150.138 125.175 147.209 124.832 143.762L122.074 108.252L121.57 101.872H116.04C112.936 101.872 111.214 99.1143 111.904 95.6634L117.591 69.4637C118.291 66.0163 121.903 63.2584 125.35 63.2584H147.399C150.846 63.2584 154.465 66.0163 155.154 69.4637L160.842 95.4919H160.856ZM149.135 45.1608C149.135 42.6374 148.388 40.1705 146.986 38.0721C145.585 35.9737 143.593 34.3381 141.261 33.3721C138.93 32.4061 136.365 32.1532 133.89 32.6453C131.415 33.1375 129.142 34.3525 127.357 36.1368C125.573 37.9211 124.358 40.1945 123.866 42.6694C123.374 45.1443 123.627 47.7096 124.593 50.0408C125.559 52.3719 127.194 54.3642 129.293 55.7657C131.391 57.1672 133.858 57.9149 136.381 57.9142C138.057 57.9179 139.717 57.5905 141.266 56.9509C142.815 56.3113 144.223 55.372 145.408 54.187C146.593 53.002 147.532 51.5947 148.172 50.0457C148.811 48.4967 149.138 46.8366 149.135 45.1608Z"
     fill="#646462"
     id="path6" />
  <path
     d="M49.9774 95.4919C50.6774 98.9393 48.77 101.697 45.4941 101.697H39.8069L39.2889 108.252L36.3596 143.762C36.0096 147.209 33.4302 150.138 30.5008 150.138H19.8123C16.883 150.138 14.2966 147.209 13.9501 143.762L11.1922 108.252L10.6778 101.876H5.15853C2.05767 101.876 0.332251 99.1178 1.02172 95.6669L6.71245 69.4671C7.41242 66.0198 11.0208 63.2619 14.4681 63.2619H36.5171C39.9644 63.2619 43.5867 66.0198 44.2762 69.4671L49.9634 95.4954L49.9774 95.4919ZM38.274 45.1608C38.2747 42.6383 37.5275 40.1722 36.127 38.0743C34.7264 35.9764 32.7353 34.3407 30.4054 33.3741C28.0754 32.4076 25.5112 32.1534 23.0369 32.6438C20.5626 33.1342 18.2891 34.3472 16.504 36.1294C14.7189 37.9116 13.5022 40.183 13.0077 42.6565C12.5132 45.1301 12.7631 47.6947 13.7259 50.0262C14.6886 52.3577 16.321 54.3515 18.4166 55.7555C20.5123 57.1595 22.9771 57.9107 25.4996 57.9142C27.1772 57.9207 28.8395 57.5953 30.3909 56.957C31.9423 56.3186 33.3522 55.3798 34.5394 54.1945C35.7266 53.0092 36.6678 51.6009 37.3087 50.0505C37.9496 48.5002 38.2777 46.8384 38.274 45.1608Z"
     fill="#646462"
     id="path8" />
  <path
     d="M68.3166 25.6842L65.2892 22.4574C71.4119 18.0972 78.9721 16.2479 86.416 17.2894C93.86 18.3308 100.622 22.184 105.313 28.0571C105.598 28.4231 105.953 28.7288 106.357 28.9565C106.761 29.1843 107.206 29.3295 107.666 29.3837C108.127 29.4379 108.594 29.4 109.039 29.2723C109.485 29.1446 109.901 28.9296 110.263 28.6397C110.625 28.3499 110.926 27.991 111.148 27.5839C111.37 27.1768 111.509 26.7297 111.557 26.2684C111.604 25.8072 111.56 25.341 111.426 24.8971C111.292 24.4531 111.071 24.0402 110.777 23.6823C104.862 16.2903 96.3027 11.4911 86.9111 10.3015C77.5194 9.11184 68.0334 11.6252 60.4629 17.3091L56.8931 13.5013C56.4214 12.998 55.8255 12.6277 55.1654 12.4277C54.5052 12.2276 53.804 12.2048 53.1323 12.3616C52.4605 12.5184 51.8419 12.8492 51.3385 13.3208C50.8351 13.7923 50.4646 14.3881 50.2644 15.0482L45.4276 31.032C45.2278 31.6921 45.2052 32.3933 45.3621 33.065C45.5191 33.7367 45.85 34.3552 46.3217 34.8585C46.7934 35.3618 47.3893 35.732 48.0494 35.9321C48.7095 36.1321 49.4107 36.155 50.0824 35.9982L66.3427 32.1939C67.0141 32.0374 67.6326 31.7069 68.1358 31.2356C68.639 30.7643 69.0092 30.1688 69.2093 29.509C69.4094 28.8492 69.4322 28.1484 69.2755 27.477C69.1188 26.8056 68.788 26.1873 68.3166 25.6842V25.6842Z"
     fill="#FE7605"
     id="path10" />
  <path
     d="M107.637 58.6876L91.069 60.7876C90.3849 60.8738 89.7355 61.1387 89.1862 61.5556C88.637 61.9724 88.2072 62.5266 87.9401 63.1623C87.6729 63.798 87.5779 64.4928 87.6646 65.1769C87.7512 65.861 88.0164 66.5102 88.4336 67.0593L91.4435 71.0211C85.9892 73.5167 79.9021 74.2843 73.999 73.2208C68.0959 72.1573 62.6594 69.3136 58.419 65.0713C57.759 64.4338 56.8749 64.0811 55.9572 64.089C55.0396 64.097 54.1618 64.4651 53.5129 65.114C52.864 65.7629 52.4959 66.6407 52.488 67.5583C52.48 68.476 52.8327 69.36 53.4703 70.0201C58.9087 75.461 65.932 79.0377 73.531 80.2363C81.1299 81.4349 88.9131 80.1936 95.7623 76.6908L98.5376 80.3481C98.9552 80.8969 99.5098 81.3261 100.146 81.5927C100.782 81.8594 101.477 81.954 102.161 81.8671C102.845 81.7802 103.494 81.5149 104.043 81.0978C104.592 80.6806 105.022 80.1264 105.289 79.4907L111.753 64.0914C112.016 63.4563 112.108 62.7633 112.019 62.0816C111.931 61.3999 111.665 60.7534 111.248 60.2065C110.832 59.6597 110.279 59.2316 109.645 58.9651C109.012 58.6986 108.319 58.6029 107.637 58.6876V58.6876Z"
     fill="#FE7605"
     id="path12" />
</svg>
