<?xml version="1.0" encoding="UTF-8" standalone="no"?>
<svg
   xmlns:dc="http://purl.org/dc/elements/1.1/"
   xmlns:cc="http://creativecommons.org/ns#"
   xmlns:rdf="http://www.w3.org/1999/02/22-rdf-syntax-ns#"
   xmlns:svg="http://www.w3.org/2000/svg"
   xmlns="http://www.w3.org/2000/svg"
   xmlns:sodipodi="http://sodipodi.sourceforge.net/DTD/sodipodi-0.dtd"
   xmlns:inkscape="http://www.inkscape.org/namespaces/inkscape"
   width="160"
   height="160"
   viewBox="0 0 160 160"
   fill="none"
   version="1.1"
   id="svg26"
   sodipodi:docname="explore-lcs-facilitator.svg"
   inkscape:version="0.92.5 (2060ec1f9f, 2020-04-08)">
  <metadata
     id="metadata32">
    <rdf:RDF>
      <cc:Work
         rdf:about="">
        <dc:format>image/svg+xml</dc:format>
        <dc:type
           rdf:resource="http://purl.org/dc/dcmitype/StillImage" />
      </cc:Work>
    </rdf:RDF>
  </metadata>
  <defs
     id="defs30" />
  <sodipodi:namedview
     pagecolor="#ffffff"
     bordercolor="#666666"
     borderopacity="1"
     objecttolerance="10"
     gridtolerance="10"
     guidetolerance="10"
     inkscape:pageopacity="0"
     inkscape:pageshadow="2"
     inkscape:window-width="1267"
     inkscape:window-height="917"
     id="namedview28"
     showgrid="false"
     inkscape:zoom="1.475"
     inkscape:cx="-3.0508475"
     inkscape:cy="80"
     inkscape:window-x="72"
     inkscape:window-y="27"
     inkscape:window-maximized="0"
     inkscape:current-layer="svg26" />
  <path
     d="M157.407 60.7154C157.417 60.9039 157.389 61.0924 157.322 61.2694C157.256 61.4465 157.154 61.6084 157.023 61.7452C156.891 61.8821 156.732 61.991 156.557 62.0653C156.381 62.1397 156.192 62.1779 156.001 62.1776H107.204C107.013 62.1779 106.824 62.1397 106.648 62.0653C106.473 61.991 106.314 61.8821 106.182 61.7452C106.051 61.6084 105.949 61.4465 105.883 61.2694C105.816 61.0924 105.788 60.9039 105.798 60.7154C106.153 48.1696 111.313 38.0511 128.008 36.7789C125.321 35.9243 123.031 34.15 121.551 31.7758C120.072 29.4016 119.499 26.5835 119.937 23.8294C120.375 21.0753 121.795 18.5663 123.941 16.7543C126.086 14.9424 128.816 13.9467 131.64 13.9467C134.463 13.9467 137.193 14.9424 139.338 16.7543C141.484 18.5663 142.904 21.0753 143.342 23.8294C143.78 26.5835 143.207 29.4016 141.728 31.7758C140.248 34.15 137.958 35.9243 135.271 36.7789C151.892 38.0364 157.052 48.1696 157.407 60.7154Z"
     fill="#FFC532"
     id="path4" />
  <path
     d="M157.407 146.079C157.412 146.265 157.38 146.45 157.311 146.622C157.243 146.795 157.14 146.953 157.009 147.085C156.878 147.218 156.721 147.324 156.548 147.396C156.375 147.468 156.189 147.505 156.001 147.505H107.204C107.016 147.505 106.83 147.468 106.657 147.396C106.484 147.324 106.327 147.218 106.196 147.085C106.065 146.953 105.962 146.795 105.894 146.622C105.825 146.45 105.793 146.265 105.798 146.079C106.153 133.534 111.313 123.415 128.008 122.143C125.321 121.288 123.031 119.514 121.551 117.14C120.072 114.766 119.499 111.948 119.937 109.194C120.375 106.439 121.795 103.93 123.941 102.118C126.086 100.306 128.816 99.3108 131.64 99.3108C134.463 99.3108 137.193 100.306 139.338 102.118C141.484 103.93 142.904 106.439 143.342 109.194C143.78 111.948 143.207 114.766 141.728 117.14C140.248 119.514 137.958 121.288 135.271 122.143C151.892 123.401 157.052 133.534 157.407 146.079Z"
     fill="#FFC532"
     id="path6" />
  <path
     d="M54.1951 146.079C54.2001 146.265 54.1673 146.45 54.0989 146.622C54.0304 146.795 53.9276 146.953 53.7964 147.085C53.6653 147.218 53.5086 147.324 53.3355 147.396C53.1623 147.468 52.9763 147.505 52.7885 147.505H3.99196C3.80408 147.505 3.61809 147.468 3.44496 147.396C3.27184 147.324 3.1151 147.218 2.98398 147.085C2.85286 146.953 2.75003 146.795 2.68156 146.622C2.61308 146.45 2.58035 146.265 2.5853 146.079C2.94066 133.534 8.10091 123.415 24.7958 122.143C22.1086 121.288 19.8189 119.514 18.3392 117.14C16.8595 114.766 16.287 111.948 16.7251 109.194C17.1631 106.439 18.5828 103.93 20.7283 102.118C22.8738 100.306 25.6041 99.3108 28.4272 99.3108C31.2503 99.3108 33.9806 100.306 36.1261 102.118C38.2717 103.93 39.6913 106.439 40.1294 109.194C40.5674 111.948 39.995 114.766 38.5153 117.14C37.0356 119.514 34.7458 121.288 32.0587 122.143C48.6795 123.401 53.8398 133.534 54.1951 146.079Z"
     fill="#FFC532"
     id="path8" />
  <path
     d="M3.99199 63.8738H52.7885C53.323 63.874 53.8521 63.7683 54.3445 63.5631C54.8369 63.3579 55.2827 63.0572 55.6554 62.6789C56.0282 62.3006 56.3203 61.8524 56.5145 61.3607C56.7088 60.8689 56.8012 60.3437 56.7864 59.8161C56.3792 45.4864 49.99 36.8813 37.7594 34.1908C40.0188 32.2973 41.6352 29.7644 42.3902 26.9346C43.1452 24.1047 43.0024 21.1142 41.981 18.3671C40.9597 15.62 39.1091 13.2486 36.6792 11.5734C34.2494 9.89827 31.3574 9 28.3939 9C25.4305 9 22.5385 9.89827 20.1087 11.5734C17.6788 13.2486 15.8282 15.62 14.8069 18.3671C13.7855 21.1142 13.6427 24.1047 14.3977 26.9346C15.1527 29.7644 16.7691 32.2973 19.0285 34.1908C6.79051 36.8813 0.401285 45.4864 0.00149542 59.8161C-0.0131245 60.3443 0.0795788 60.8701 0.274131 61.3623C0.468683 61.8546 0.76114 62.3033 1.13423 62.6821C1.5046 63.0607 1.9487 63.3615 2.4398 63.5663C2.93091 63.7711 3.45889 63.8757 3.99199 63.8738V63.8738Z"
     fill="#646462"
     id="path10" />
  <path
     d="M36.982 121.324C39.4293 119.534 41.2425 117.028 42.1638 114.162C43.085 111.295 43.0672 108.215 42.1129 105.359C41.1587 102.503 39.3166 100.017 36.8488 98.2554C34.381 96.4933 31.4133 95.5447 28.368 95.5447C25.3227 95.5447 22.355 96.4933 19.8872 98.2554C17.4195 100.017 15.5774 102.503 14.6231 105.359C13.6689 108.215 13.6511 111.295 14.5723 114.162C15.4935 117.028 17.3068 119.534 19.754 121.324C7.05704 123.883 0.408688 132.488 0.00149542 147.103C-0.0131245 147.631 0.0795788 148.157 0.274131 148.649C0.468683 149.141 0.76114 149.59 1.13423 149.969C1.5046 150.348 1.9487 150.648 2.4398 150.853C2.93091 151.058 3.45889 151.163 3.99199 151.161H52.7885C53.3227 151.16 53.8513 151.054 54.3433 150.848C54.8352 150.642 55.2806 150.342 55.6531 149.964C56.0257 149.586 56.3178 149.138 56.5124 148.646C56.7071 148.155 56.8002 147.63 56.7864 147.103C56.3718 132.488 49.7234 123.883 36.982 121.324ZM28.3939 100.692C30.2316 100.692 32.028 101.23 33.556 102.239C35.0839 103.247 36.2748 104.68 36.9781 106.356C37.6813 108.033 37.8653 109.878 37.5068 111.658C37.1483 113.438 36.2634 115.073 34.964 116.356C33.6645 117.639 32.009 118.513 30.2066 118.867C28.4042 119.221 26.5361 119.039 24.8383 118.345C23.1405 117.65 21.6894 116.474 20.6684 114.965C19.6475 113.456 19.1025 111.682 19.1025 109.868C19.1045 107.435 20.084 105.102 21.8261 103.382C23.5681 101.662 25.9303 100.694 28.3939 100.692V100.692ZM5.22837 146.021C6.00574 132.13 13.3722 125.638 28.3939 125.638C43.4157 125.638 50.7747 132.123 51.5521 146.021H5.22837Z"
     fill="#646462"
     id="path12" />
  <path
     d="M140.216 121.324C142.664 119.534 144.477 117.028 145.398 114.162C146.319 111.295 146.302 108.215 145.347 105.359C144.393 102.503 142.551 100.017 140.083 98.2554C137.616 96.4933 134.648 95.5447 131.602 95.5447C128.557 95.5447 125.589 96.4933 123.122 98.2554C120.654 100.017 118.812 102.503 117.858 105.359C116.903 108.215 116.886 111.295 117.807 114.162C118.728 117.028 120.541 119.534 122.989 121.324C110.277 123.883 103.614 132.488 103.214 147.103C103.199 147.631 103.292 148.156 103.485 148.648C103.678 149.14 103.968 149.589 104.339 149.969C104.711 150.347 105.157 150.648 105.649 150.852C106.141 151.057 106.67 151.162 107.204 151.161H156.001C156.535 151.16 157.064 151.054 157.556 150.848C158.048 150.642 158.493 150.342 158.865 149.964C159.238 149.586 159.53 149.138 159.725 148.646C159.919 148.155 160.012 147.63 159.999 147.103C159.584 132.488 152.936 123.883 140.216 121.324ZM131.606 100.692C133.444 100.692 135.24 101.23 136.768 102.239C138.296 103.247 139.487 104.68 140.19 106.356C140.894 108.033 141.078 109.878 140.719 111.658C140.361 113.438 139.476 115.073 138.176 116.356C136.877 117.639 135.221 118.513 133.419 118.867C131.617 119.221 129.748 119.039 128.051 118.345C126.353 117.65 124.902 116.474 123.881 114.965C122.86 113.456 122.315 111.682 122.315 109.868C122.317 107.435 123.296 105.102 125.038 103.382C126.78 101.662 129.143 100.694 131.606 100.692V100.692ZM108.441 146.021C109.181 132.13 116.584 125.638 131.606 125.638C146.628 125.638 153.987 132.123 154.764 146.021H108.441Z"
     fill="#646462"
     id="path14" />
  <path
     d="M107.204 65.4383H156.001C156.535 65.4375 157.064 65.3312 157.556 65.1256C158.048 64.9201 158.493 64.6194 158.865 64.2413C159.238 63.8632 159.53 63.4153 159.725 62.9241C159.919 62.4328 160.012 61.908 159.999 61.3807C159.591 47.051 153.202 38.4678 140.972 35.7554C143.231 33.8618 144.847 31.329 145.602 28.4992C146.357 25.6693 146.215 22.6788 145.193 19.9317C144.172 17.1845 142.321 14.8132 139.891 13.138C137.462 11.4628 134.57 10.5646 131.606 10.5646C128.643 10.5646 125.751 11.4628 123.321 13.138C120.891 14.8132 119.04 17.1845 118.019 19.9317C116.998 22.6788 116.855 25.6693 117.61 28.4992C118.365 31.329 119.981 33.8618 122.241 35.7554C110.003 38.4678 103.614 47.051 103.214 61.3807C103.2 61.9071 103.292 62.4311 103.485 62.9219C103.678 63.4127 103.969 63.8606 104.339 64.2393C104.71 64.6198 105.155 64.9223 105.647 65.1283C106.14 65.3344 106.669 65.4398 107.204 65.4383V65.4383ZM131.636 15.723C133.473 15.723 135.27 16.2612 136.798 17.2694C138.326 18.2776 139.517 19.7106 140.22 21.3872C140.923 23.0638 141.107 24.9086 140.749 26.6885C140.39 28.4683 139.505 30.1032 138.206 31.3864C136.906 32.6696 135.251 33.5435 133.448 33.8975C131.646 34.2516 129.778 34.0699 128.08 33.3754C126.382 32.6809 124.931 31.5049 123.91 29.996C122.889 28.4871 122.344 26.7132 122.344 24.8984C122.34 23.6925 122.575 22.4975 123.038 21.3816C123.501 20.2656 124.182 19.2506 125.042 18.3946C125.902 17.5385 126.924 16.858 128.051 16.3921C129.177 15.9262 130.385 15.684 131.606 15.6792L131.636 15.723ZM131.636 39.9593C146.628 39.9593 154.017 46.4442 154.794 60.3425H108.441C109.218 46.4222 116.607 39.9373 131.606 39.9373L131.636 39.9593Z"
     fill="#646462"
     id="path16" />
  <path
     d="M105.309 104.289V78.1011C105.307 76.6067 104.705 75.1741 103.635 74.1174C102.565 73.0607 101.114 72.4662 99.6009 72.4643H60.8879C59.3746 72.4662 57.9239 73.0607 56.8538 74.1174C55.7838 75.1741 55.1818 76.6067 55.1798 78.1011V104.289C55.1818 105.784 55.7838 107.216 56.8538 108.273C57.9239 109.33 59.3746 109.924 60.8879 109.926H65.6632V115.19C65.6596 115.935 65.8867 116.664 66.3141 117.278C66.7415 117.892 67.3488 118.363 68.0545 118.626C68.7588 118.897 69.53 118.948 70.2645 118.773C70.999 118.598 71.6617 118.205 72.1635 117.647L79.182 109.926H99.6157C101.126 109.92 102.573 109.324 103.64 108.268C104.707 107.212 105.307 105.781 105.309 104.289V104.289ZM100.127 104.289C100.127 104.427 100.071 104.559 99.9725 104.656C99.874 104.754 99.7403 104.808 99.6009 104.808H76.8573L70.8456 111.454V104.83H60.8879C60.7485 104.83 60.6148 104.776 60.5162 104.678C60.4177 104.581 60.3623 104.449 60.3623 104.311V78.1011C60.3623 77.9634 60.4177 77.8314 60.5162 77.7341C60.6148 77.6367 60.7485 77.582 60.8879 77.582H99.6009C99.7403 77.582 99.874 77.6367 99.9725 77.7341C100.071 77.8314 100.127 77.9634 100.127 78.1011V104.289Z"
     fill="#646462"
     id="path18" />
  <path
     d="M71.516 93.5124C72.8777 92.1676 72.8777 89.9873 71.516 88.6425C70.1542 87.2977 67.9463 87.2977 66.5845 88.6425C65.2228 89.9873 65.2228 92.1676 66.5845 93.5124C67.9463 94.8571 70.1542 94.8571 71.516 93.5124Z"
     fill="#646462"
     id="path20" />
  <path
     d="M81.0386 94.4327C82.913 93.9958 84.0738 92.1412 83.6314 90.2902C83.189 88.4393 81.3109 87.293 79.4366 87.7298C77.5622 88.1667 76.4014 90.0213 76.8438 91.8723C77.2862 93.7232 79.1643 94.8696 81.0386 94.4327Z"
     fill="#646462"
     id="path22" />
  <path
     d="M91.4422 94.5218C93.368 94.5218 94.9292 92.9801 94.9292 91.0783C94.9292 89.1765 93.368 87.6348 91.4422 87.6348C89.5163 87.6348 87.9551 89.1765 87.9551 91.0783C87.9551 92.9801 89.5163 94.5218 91.4422 94.5218Z"
     fill="#646462"
     id="path24" />
</svg>
