<?xml version="1.0" encoding="UTF-8" standalone="no"?>
<svg xmlns="http://www.w3.org/2000/svg" height="293px" width="600px" version="1.1" xmlns:xlink="http://www.w3.org/1999/xlink" viewBox="0 0 600 293"><!-- Generator: Sketch 48.1 (47250) - http://www.bohemiancoding.com/sketch -->
 <title>logos/zinn education project</title>
 <desc>Created with Sketch.</desc>
 <g id="Symbols" fill-rule="evenodd" fill="none">
  <g id="logos/zinn-education-project" fill="#BA4D16">
   <path id="Combined-Shape" d="m1.697 0h57.549v11.841l-33.089 55.402h34.501v17.481h-60.658v-12.123l33.228-55.541h-31.531v-17.06zm69.192 84.724v-84.724h20.463v84.724h-20.463zm74.751-84.724h18.79v84.724h-17.37l-26-47.93h-1.27v47.93h-18.94v-84.724h16.25l27.41 48.496h1.13v-48.496zm73.08 0h18.8v84.724h-17.38l-26-47.93h-1.27v47.93h-18.94v-84.724h16.25l27.41 48.496h1.13v-48.496zm-217.99 96.41h48.234v17.34h-28.463v15.37h19.768v16.63h-19.768v17.9h28.463v17.48h-48.234l-0.00018-84.72zm80.447 0.408c28.712 0 45.312 15.472 45.312 41.902 0 25.88-17.17 42.61-43.624 42.61h-22.797v-84.512h21.109zm0.985 66.932c14.494 0 23.077-8.86 23.077-24.61 0-16.17-8.302-24.74-23.077-24.74h-1.548v49.35h1.548zm120.03-17.58c0 23.21-12.81 37.13-33.63 37.13-20.97 0-33.49-13.64-33.49-37.27v-49.212h20.54v49.492c0 12.94 4.36 19.41 13.23 19.41 9 0 12.8-6.33 12.8-19.41v-49.492h20.55v49.352zm72.18 28.41c-7.46 6.04-15.34 8.72-25.33 8.72-11.25 0-19.56-4.08-28-13.08-5.77-6.05-10.41-17.72-10.41-30.65 0-15.19 6.47-28.69 17.73-37.13 6.61-4.917 14.21-7.589 22.09-7.589 8.02 0 15.62 2.247 23.08 6.609l-6.19 18.28c-5.63-2.95-10.56-4.5-16.05-4.5-11.25 0-18.85 9.14-18.85 24.19 0 14.76 8.3 24.46 19.42 24.46 6.33 0 11.82-2.25 18.43-6.75l4.08 17.44zm32.08-10.13l-5.77 16.88h-21.25l30.82-84.512h17.87l30.82 84.512h-21.25l-5.77-16.88h-25.47zm20.69-13.92l-2.25-6.89c-0.57-1.68-2.54-8.57-5.77-20.39l-5.49 20.53-2.39 6.75h15.9zm62.76-38.39v69.19h-20.55v-69.19h-21.39v-15.322h63.47v15.322h-21.53zm29.04 69.19v-84.512h20.41v84.512h-20.41zm98.79-10.83c-7.74 8.44-17.87 12.8-29.13 12.8s-21.11-4.36-28.85-12.8c-7.32-8.01-11.4-18.98-11.4-31.36 0-12.37 4.08-23.34 11.4-31.35 7.74-8.581 17.45-12.941 28.85-12.941 11.26 0 21.25 4.501 29.13 12.941 7.45 8.29 11.53 18.98 11.53 31.35 0 12.38-4.08 23.35-11.53 31.36zm-29.13-57.23c-10.42 0-18.72 10.27-18.72 25.45 0 15.33 8.02 25.88 18.72 25.88 10.69 0 19.13-10.55 19.13-25.88 0-14.9-8.72-25.45-19.13-25.45zm66.61 68.06h-18.85v-84.512h16.18l27.3 48.372h1.13v-48.372h18.71v84.512h-17.31l-25.89-47.81h-1.27v47.81zm-532.29 11.71c22.373 0 35.18 10.41 35.18 26.86 0 15.61-14.212 27.14-35.18 27.14h-2.252v30.51h-19.842l0.00037-84.51h22.094zm-0.985 37.27c9.99 0 15.479-3.8 15.479-10.13 0-6.89-4.926-9.84-15.479-9.84h-1.267v19.97h1.267zm83.301 47.24v-18.84c0-9.42-3.8-12.23-13.509-12.23h-6.612v31.07h-19.844v-84.51h26.879c21.526 0 33.636 9.43 33.636 24.05 0 9.14-5.21 15.61-15.62 19.69v0.28c9.7 1.54 14.49 8.01 14.49 19.4v21.09h-19.42zm-15.338-47.24c9.99 0 14.918-3.52 14.918-10.55 0-6.89-4.65-9.42-15.34-9.42h-4.361v19.97h4.783zm110.46 36.42c-7.74 8.43-17.87 12.79-29.13 12.79s-21.11-4.36-28.85-12.79c-7.31-8.02-11.39-18.99-11.39-31.36 0-12.38 4.08-23.34 11.39-31.36 7.74-8.58 17.45-12.94 28.85-12.94 11.26 0 21.25 4.51 29.13 12.94 7.46 8.3 11.54 18.98 11.54 31.36 0 12.37-4.08 23.34-11.54 31.36zm-29.13-57.23c-10.41 0-18.71 10.26-18.71 25.45 0 15.33 8.02 25.87 18.71 25.87 10.7 0 19.14-10.54 19.14-25.87 0-14.91-8.72-25.45-19.14-25.45zm71.83 47.38c0 20.39-10.13 32.35-30.26 36l-4.5-16.73c11.68-2.67 14.21-8.44 14.21-20.53v-62.58h20.55v63.84zm12.52 20.67v-84.51h48.4v17.3h-28.56v15.33h19.84v16.59h-19.84v17.86h28.56v17.43h-48.4zm117.63-6.74c-7.45 6.04-15.33 8.71-25.32 8.71-11.26 0-19.56-4.08-28.01-13.07-5.77-6.05-10.41-17.72-10.41-30.66 0-15.18 6.47-28.68 17.73-37.12 6.61-4.92 14.21-7.59 22.09-7.59 8.02 0 15.62 2.24 23.08 6.6l-6.19 18.28c-5.63-2.95-10.56-4.5-16.04-4.5-11.26 0-18.86 9.15-18.86 24.19 0 14.77 8.3 24.47 19.42 24.47 6.33 0 11.82-2.25 18.43-6.75l4.08 17.44zm48.41-61.44v69.18h-20.55v-69.18h-21.39v-15.33h63.47v15.33h-21.53z"/>
  </g>
 </g>
</svg>
