<?xml version="1.0" encoding="UTF-8"?>
<svg width="312.13mm" height="89.326mm" version="1.1" viewBox="0 0 312.13 89.326" xmlns="http://www.w3.org/2000/svg" xmlns:xlink="http://www.w3.org/1999/xlink">
  <defs>
    <g id="a">
      <g id="b">
        <path id="g" transform="rotate(18 3.1569 -.5)" d="m0 0v1h0.5z"/>
        <use transform="scale(-1,1)" width="100%" height="100%" xlink:href="#g"/>
      </g>
      <g id="c">
        <use transform="rotate(72)" width="100%" height="100%" xlink:href="#b"/>
        <use transform="rotate(144)" width="100%" height="100%" xlink:href="#b"/>
      </g>
      <use transform="scale(-1,1)" width="100%" height="100%" xlink:href="#c"/>
    </g>
  </defs>
  <path d="m131.16 72.78h-18.53v-28.125h18.53v3.3245h-14.79v7.707h14.79v3.3242h-14.79v10.446h14.79v3.324" fill="#2765b2" stroke-width=".26458"/>
  <path d="m148.52 55.56h-0.18885c-0.52885-0.12601-1.0418-0.21696-1.5392-0.27384-0.49773-0.0569-1.0864-0.0853-1.7661-0.0853-1.0957 0-2.1534 0.24276-3.1734 0.72729-1.0203 0.48522-2.0026 1.1115-2.9469 1.8798v14.978h-3.551v-21.099h3.551v3.1168c1.4102-1.1331 2.6538-1.9361 3.7306-2.4084 1.0765-0.47196 2.1749-0.70842 3.2962-0.70842 0.6168 0 1.0639 0.0162 1.3411 0.0476 0.27681 0.0311 0.6922 0.0913 1.2465 0.17893v3.646" fill="#2765b2" stroke-width=".26458"/>
  <path d="m164.08 67.59v-5.8743c-1.0825 0.0624-2.3578 0.15775-3.8246 0.28268-1.4671 0.1261-2.6293 0.3089-3.4851 0.54806-1.02 0.29001-1.8448 0.74025-2.4745 1.3507-0.62971 0.61095-0.94424 1.4513-0.94424 2.5218 0 1.2086 0.36512 2.1188 1.0957 2.7294 0.73025 0.61081 1.8445 0.91569 3.343 0.91569 1.2468 0 2.3862-0.24209 3.4189-0.72654 1.0322-0.48525 1.9897-1.0673 2.8707-1.7473zm3.5327 5.194h-3.5327v-2.2473c-0.31454 0.21368-0.73951 0.51302-1.2746 0.89662-0.53546 0.38433-1.0547 0.68987-1.5584 0.91646-0.59166 0.2894-1.272 0.53179-2.0399 0.72697-0.7683 0.19546-1.6685 0.293-2.7009 0.293-1.902 0-3.5137-0.62968-4.8361-1.8888-1.3223-1.2595-1.9834-2.8649-1.9834-4.8167 0-1.5994 0.34295-2.8932 1.0295-3.8814 0.68593-0.98859 1.6649-1.7662 2.9371-2.3327 1.2846-0.56716 2.8263-0.95085 4.6276-1.1526 1.8008-0.20142 3.7335-0.35243 5.7986-0.45334v-0.54774c0-0.80526-0.14155-1.4733-0.42434-2.0025-0.28377-0.52824-0.6899-0.9443-1.2191-1.2466-0.50303-0.2894-1.1076-0.4845-1.8131-0.58539-0.70543-0.10054-1.442-0.15114-2.2099-0.15114-0.93199 0-1.9708 0.1227-3.1165 0.36843-1.1463 0.2454-2.33 0.60127-3.551 1.0669h-0.18918v-3.6076c0.69255-0.18852 1.6933-0.39656 3.0033-0.62341 1.3094-0.22655 2.6002-0.33967 3.8722-0.33967 1.4856 0 2.7794 0.1227 3.8814 0.36809 1.102 0.24538 2.0561 0.66476 2.8615 1.2564 0.79407 0.57944 1.398 1.3289 1.814 2.2473 0.4154 0.91974 0.62341 2.059 0.62341 3.4189v14.318" fill="#2765b2" stroke-width=".26458"/>
  <path d="m188.18 66.7c0 1.9269-0.7964 3.5078-2.3892 4.7413-1.5938 1.2343-3.7687 1.8514-6.5262 1.8514-1.5617 0-2.9938-0.18617-4.2974-0.55759-1.3028-0.37144-2.3958-0.77684-3.2769-1.218v-3.9857h0.18852c1.1208 0.84376 2.3674 1.5141 3.7402 2.0115 1.3725 0.49805 2.6884 0.74609 3.9478 0.74609 1.5614 0 2.7829-0.25128 3.6639-0.75538 0.88172-0.50374 1.3226-1.2967 1.3226-2.3802 0-0.83042-0.23912-1.4605-0.71768-1.8888-0.4789-0.42762-1.398-0.79312-2.7575-1.0954-0.50403-0.11305-1.1615-0.24534-1.9741-0.39651-0.81195-0.15114-1.5521-0.31483-2.2195-0.49117-1.8508-0.49147-3.1639-1.2118-3.9383-2.1627-0.77444-0.95086-1.1615-2.1186-1.1615-3.5044 0-0.86878 0.17959-1.687 0.53811-2.4549 0.35917-0.7683 0.90355-1.4549 1.6341-2.0588 0.7048-0.59235 1.6021-1.0613 2.6919-1.4076 1.0891-0.34629 2.3075-0.51925 3.655-0.51925 1.2591 0 2.534 0.15445 3.8246 0.46236 1.2908 0.3089 2.3644 0.68363 3.221 1.1242v3.7968h-0.18885c-0.90686-0.66707-2.0088-1.231-3.306-1.6904-1.2971-0.46006-2.5681-0.68991-3.815-0.68991-1.2971 0-2.3925 0.24871-3.2864 0.74613-0.89495 0.49808-1.3418 1.2376-1.3418 2.2195 0 0.86879 0.27054 1.5237 0.81259 1.9642 0.52917 0.44119 1.3848 0.80036 2.5691 1.077 0.65418 0.15101 1.3881 0.30218 2.2 0.45333 0.81259 0.15115 1.4889 0.29001 2.031 0.41545 1.649 0.37804 2.921 1.0262 3.8156 1.9456 0.89397 0.93197 1.3408 2.166 1.3408 3.7018" fill="#2765b2" stroke-width=".26458"/>
  <path d="m222.74 72.78h-3.5512v-12.013c0-0.90678-0.0407-1.782-0.1227-2.6257-0.082-0.84363-0.25499-1.5174-0.51924-2.021-0.29004-0.54136-0.70543-0.95014-1.2468-1.228-0.54107-0.27649-1.3223-0.41539-2.3422-0.41539-0.99483 0-1.9893 0.24871-2.9842 0.74612-0.99483 0.49808-1.9897 1.1304-2.9845 1.8983 0.0377 0.2902 0.0691 0.62686 0.0946 1.0104 0.0251 0.38434 0.038 0.76534 0.038 1.1434v13.505h-3.5518v-12.013c0-0.93199-0.0407-1.8163-0.1227-2.654-0.082-0.83704-0.25499-1.5074-0.51924-2.0115-0.29004-0.54139-0.70543-0.94753-1.2465-1.2184-0.54139-0.27053-1.3226-0.40613-2.3422-0.40613-0.9697 0-1.9427 0.23978-2.9186 0.71768-0.976 0.47858-1.9487 1.0898-2.9184 1.8326v15.753h-3.5507v-21.099h3.5507v2.3422c1.1086-0.91842 2.2129-1.6368 3.3152-2.153 1.102-0.51594 2.2761-0.77457 3.5229-0.77457 1.4354 0 2.6535 0.30228 3.655 0.90686 1.0011 0.60425 1.7473 1.442 2.2381 2.5122 1.436-1.2092 2.7453-2.0806 3.9288-2.6161 1.184-0.53547 2.4494-0.80301 3.797-0.80301 2.3167 0 4.0259 0.70215 5.1279 2.1058 1.102 1.4046 1.653 3.3655 1.653 5.8843v13.694" fill="#2765b2" stroke-width=".26458"/>
  <path d="m245.11 72.78h-3.5507v-2.3422c-1.1969 0.94427-2.3422 1.6693-3.4375 2.1722-1.0957 0.50409-2.3048 0.75576-3.6272 0.75576-2.2162 0-3.9418-0.67694-5.1755-2.0306-1.2343-1.3534-1.8504-3.3398-1.8504-5.9592v-13.695h3.5507v12.013c0 1.0704 0.0503 1.9865 0.15114 2.7488 0.10087 0.76131 0.31454 1.4131 0.64193 1.9545 0.33999 0.55438 0.78118 0.95721 1.3223 1.2091 0.54139 0.25205 1.3282 0.37734 2.3611 0.37734 0.91911 0 1.9235-0.23898 3.0125-0.71765 1.0891-0.47813 2.1067-1.0891 3.0509-1.832v-15.754h3.5507v21.099" fill="#2765b2" stroke-width=".26458"/>
  <path d="m265.85 66.7c0 1.9269-0.7964 3.5078-2.3895 4.7413-1.5928 1.2343-3.7682 1.8514-6.5259 1.8514-1.5614 0-2.994-0.18617-4.2971-0.55759-1.3034-0.37144-2.3958-0.77684-3.2777-1.218v-3.9857h0.18951c1.1205 0.84376 2.3674 1.5141 3.7399 2.0115 1.3722 0.49805 2.6879 0.74609 3.9476 0.74609 1.561 0 2.7829-0.25128 3.6645-0.75538 0.88106-0.50374 1.3223-1.2967 1.3223-2.3802 0-0.83042-0.23978-1.4605-0.71768-1.8888-0.47858-0.42762-1.398-0.79312-2.7583-1.0954-0.50371-0.11305-1.1615-0.24534-1.9735-0.39651-0.81259-0.15114-1.5521-0.31483-2.2195-0.49117-1.8511-0.49147-3.1639-1.2118-3.9383-2.1627s-1.1615-2.1186-1.1615-3.5044c0-0.86878 0.17892-1.687 0.53811-2.4549 0.35917-0.7683 0.90323-1.4549 1.6338-2.0588 0.70543-0.59235 1.6027-1.0613 2.6919-1.4076 1.0888-0.34629 2.3072-0.51925 3.6544-0.51925 1.2597 0 2.534 0.15445 3.8256 0.46236 1.2905 0.3089 2.3641 0.68363 3.2205 1.1242v3.7968h-0.18918c-0.9065-0.66707-2.0085-1.231-3.3052-1.6904-1.2971-0.46006-2.5691-0.68991-3.8158-0.68991-1.2968 0-2.3925 0.24871-3.2864 0.74613-0.89397 0.49808-1.3411 1.2376-1.3411 2.2195 0 0.86879 0.27088 1.5237 0.81195 1.9642 0.52917 0.44119 1.3858 0.80036 2.5691 1.077 0.65484 0.15101 1.3881 0.30218 2.2007 0.45333 0.81195 0.15115 1.4889 0.29001 2.0304 0.41545 1.6497 0.37804 2.9215 1.0262 3.8156 1.9456 0.89396 0.93197 1.3411 2.166 1.3411 3.7018" fill="#2765b2" stroke-width=".26458"/>
  <path d="m295.59 61.98h-10.295v10.295h-3.1353v-10.295h-10.294v-3.0226h10.294v-10.294h3.1353v10.294h10.295v3.0226" fill="#2765b2" stroke-width=".26458"/>
  <g transform="matrix(.10417 0 0 .10417 16.54 16.54)" stroke-width="2.54">
    <rect width="810" height="540" fill="#2765b2"/>
    <g transform="matrix(30,0,0,30,405,270)" fill="#fc0">
      <use y="-6" width="100%" height="100%" xlink:href="#a"/>
      <use y="6" width="100%" height="100%" xlink:href="#a"/>
      <g id="f">
        <use x="-6" width="100%" height="100%" stroke-width="2.54" xlink:href="#a"/>
        <use transform="rotate(216 -2.3442 -2.1107)" width="100%" height="100%" stroke-width="2.54" xlink:href="#a"/>
        <use transform="rotate(144,-2.1107,-2.3442)" width="100%" height="100%" stroke-width="2.54" xlink:href="#a"/>
        <use transform="rotate(72,-4.6626,-2.0759)" width="100%" height="100%" stroke-width="2.54" xlink:href="#a"/>
        <use transform="rotate(72 -5.0759 .5335)" width="100%" height="100%" stroke-width="2.54" xlink:href="#a"/>
      </g>
      <use transform="scale(-1,1)" width="100%" height="100%" xlink:href="#f"/>
    </g>
  </g>
</svg>
